<svg xmlns="http://www.w3.org/2000/svg" enable-background="new 0 0 512 512" viewBox="0 0 512 512" id="debt"><path fill="#fff" d="M236,51.04h-20h-5h-25c-16.57,0-30,13.43-30,30v27.66h110V81.04C266,64.47,252.57,51.04,236,51.04z
			"></path><path fill="#fff" d="M266,108.7c83.72,23.89,145,100.96,145,192.34c0,110.45-89.54,200-200,200s-200-89.55-200-200
			c0-91.38,61.28-168.45,145-192.34c17.47-4.99,35.92-7.66,55-7.66S248.53,103.71,266,108.7z"></path><circle cx="211" cy="301.04" r="130" fill="#9dcafc"></circle><path fill="#4269a7" d="M446 61.036c-5.522 0-10 4.477-10 10v2.5c0 20.678-16.822 37.5-37.5 37.5S361 94.213 361 73.536v-22.5c0-27.57-22.43-50-50-50h-60c-24.146 0-44.348 17.205-48.994 40H186c-22.056 0-40 17.944-40 40v20.31C61.925 128.78 1 207.92 1 301.036c0 115.794 94.206 210 210 210s210-94.206 210-210c0-93.116-60.925-172.256-145-199.69v-20.31c0-22.056-17.944-40-40-40h-13.28c4.128-11.639 15.243-20 28.28-20h60c16.542 0 30 13.458 30 30v22.5c0 31.706 25.794 57.5 57.5 57.5s57.5-25.794 57.5-57.5v-2.5C456 65.513 451.522 61.036 446 61.036zM401 301.036c0 104.767-85.233 190-190 190s-190-85.233-190-190 85.233-190 190-190S401 196.269 401 301.036zM256 81.036v14.87c-29.621-6.493-60.363-6.496-90 0v-14.87c0-11.028 8.972-20 20-20h50C247.028 61.036 256 70.008 256 81.036zM446 1.036c-5.522 0-10 4.477-10 10v20c0 5.523 4.478 10 10 10s10-4.477 10-10v-20C456 5.513 451.522 1.036 446 1.036z"></path><path fill="#4269a7" d="M398.071 32.178l14.143-14.142c3.905-3.905 3.905-10.237 0-14.142-3.904-3.905-10.234-3.905-14.143 0l-14.143 14.142c-3.905 3.905-3.905 10.237 0 14.142C387.835 36.084 394.165 36.082 398.071 32.178zM508.071 18.035L493.929 3.893c-3.906-3.905-10.236-3.905-14.143 0-3.905 3.905-3.905 10.237 0 14.142l14.143 14.142c3.906 3.905 10.236 3.905 14.143 0C511.976 28.272 511.976 21.94 508.071 18.035zM71 301.036c0 77.196 62.804 140 140 140s140-62.804 140-140-62.804-140-140-140S71 223.839 71 301.036zM331 301.036c0 66.168-53.832 120-120 120s-120-53.832-120-120 53.832-120 120-120S331 234.867 331 301.036z"></path><path fill="#4269a7" d="M201,221.036v15.897c-22.97,9.632-28.717,39.527-11.214,57.032l28.285,28.284
				c5.849,5.849,5.849,15.365,0.001,21.213c-5.849,5.849-15.365,5.849-21.214,0c-3.906-3.905-10.236-3.905-14.143,0
				c-3.905,3.905-3.905,10.237,0,14.143c5.175,5.175,11.582,8.383,18.284,9.633v13.799c0,5.523,4.478,10,10,10s10-4.477,10-10
				v-15.911c22.894-9.568,28.766-39.464,11.214-57.018l-28.285-28.284c-5.849-5.849-5.849-15.365,0-21.213
				c5.863-5.864,15.352-5.862,21.213,0c3.906,3.906,10.236,3.906,14.143,0c3.905-3.905,3.905-10.237,0-14.142
				c-5.186-5.186-11.589-8.402-18.284-9.655v-13.776c0-5.523-4.478-10-10-10S201,215.513,201,221.036z"></path></svg>